<?xml version="1.0" standalone="no"?>
<!DOCTYPE svg PUBLIC "-//W3C//DTD SVG 20010904//EN"
 "http://www.w3.org/TR/2001/REC-SVG-20010904/DTD/svg10.dtd">
<svg version="1.0" xmlns="http://www.w3.org/2000/svg"
 width="500.000000pt" height="500.000000pt" viewBox="0 0 500.000000 500.000000"
 preserveAspectRatio="xMidYMid meet">
<metadata>
Created by potrace 1.11, written by Peter Selinger 2001-2013
</metadata>
<g transform="translate(0.000000,500.000000) scale(0.100000,-0.100000)"
fill="#000000" stroke="none">
<path d="M2217 4923 c-4 -3 -2 -12 4 -19 8 -10 5 -11 -12 -7 -17 5 -20 3 -15
-8 4 -8 1 -6 -7 4 -15 18 -16 17 -22 -4 -6 -17 -9 -19 -17 -8 -7 10 -8 8 -5
-8 3 -13 1 -23 -4 -23 -5 0 -9 4 -9 8 0 5 -7 9 -15 9 -11 0 -12 -4 -5 -11 5
-5 10 -15 10 -20 0 -6 -4 -4 -10 4 -8 12 -10 12 -16 -3 -3 -9 -12 -17 -20 -17
-8 0 -14 -5 -14 -11 0 -5 5 -7 12 -3 7 4 8 3 4 -4 -4 -7 -15 -12 -24 -12 -9 0
-24 -5 -32 -11 -13 -9 -12 -10 3 -5 9 3 17 1 17 -4 0 -6 -5 -10 -11 -10 -5 0
-7 -6 -3 -12 6 -10 4 -10 -8 0 -13 11 -16 10 -14 -5 0 -10 -6 -18 -14 -18 -9
0 -14 -8 -12 -19 2 -10 -1 -15 -6 -12 -5 3 -8 -6 -6 -19 1 -14 -3 -28 -8 -32
-7 -4 -8 -1 -3 7 6 9 4 11 -4 6 -7 -5 -10 -15 -7 -23 5 -11 2 -13 -10 -9 -14
5 -15 4 -4 -9 10 -12 10 -15 -4 -15 -19 0 -17 -20 4 -37 13 -10 11 -11 -8 -6
-18 4 -21 2 -15 -12 5 -14 3 -16 -8 -10 -11 7 -11 5 1 -10 13 -17 13 -18 -1
-13 -9 4 -16 1 -16 -8 0 -7 4 -11 8 -9 10 7 5 -22 -6 -32 -4 -4 -5 -2 0 6 6
10 4 12 -4 7 -9 -6 -9 -11 1 -24 10 -12 10 -14 1 -8 -8 4 -13 2 -13 -4 0 -6
-5 -8 -12 -4 -7 4 -8 3 -4 -5 4 -6 11 -9 16 -6 5 3 12 0 16 -6 4 -8 3 -9 -4
-5 -7 4 -12 2 -12 -3 0 -21 -2 -26 -13 -40 -9 -11 -9 -13 0 -8 6 4 15 2 19 -4
4 -8 3 -9 -4 -5 -7 4 -12 3 -12 -3 0 -6 -8 -8 -17 -4 -15 5 -15 3 2 -11 11
-10 14 -15 8 -11 -10 5 -11 0 -3 -20 5 -14 6 -24 1 -21 -5 3 -12 -1 -15 -10
-3 -8 -2 -13 3 -10 5 3 11 -6 14 -21 5 -26 4 -27 -10 -8 -14 20 -15 20 -11 0
2 -11 8 -23 13 -27 6 -5 5 -8 -3 -8 -7 0 -10 -5 -7 -10 4 -6 12 -7 18 -4 7 4
2 -4 -11 -18 -26 -29 -56 -27 -75 3 -8 12 -15 15 -23 8 -8 -6 -14 -5 -18 6 -3
9 -2 13 3 10 5 -3 12 -2 15 3 2 4 -6 8 -19 8 -13 0 -21 -5 -19 -10 3 -6 -4 0
-15 13 -12 13 -21 18 -21 11 0 -8 -12 -11 -35 -8 -19 2 -36 0 -38 -6 -2 -5
-10 -10 -19 -12 -11 -1 -15 3 -12 14 4 11 1 9 -7 -3 -24 -40 -51 -63 -69 -60
-14 3 -17 -1 -13 -13 3 -9 3 -14 -1 -10 -12 10 -54 -44 -51 -65 2 -9 0 -15 -5
-12 -5 3 -11 1 -14 -4 -4 -5 2 -12 11 -14 13 -3 11 -5 -6 -6 -24 -1 -24 -1 -5
-16 18 -14 18 -14 -6 -10 -24 4 -24 4 -6 -10 17 -13 18 -15 3 -15 -9 0 -17 -5
-17 -11 0 -5 -6 -7 -12 -3 -7 4 -4 -3 6 -15 16 -17 16 -20 4 -16 -9 4 -19 1
-24 -6 -4 -8 -3 -10 4 -5 7 4 12 3 12 -3 0 -5 -5 -13 -10 -16 -6 -4 -8 -10 -5
-15 3 -5 -3 -14 -12 -20 -16 -10 -16 -11 -1 -6 10 3 20 1 23 -4 4 -6 -2 -10
-12 -11 -10 0 -13 -3 -5 -6 6 -2 12 -11 12 -19 0 -9 -5 -12 -12 -8 -7 5 -8 3
-4 -5 5 -7 15 -10 25 -7 11 4 10 1 -4 -9 -11 -9 -21 -24 -22 -33 -1 -9 -3 -32
-6 -50 -4 -26 -2 -30 9 -21 11 9 11 5 4 -20 -5 -18 -5 -33 0 -36 5 -3 6 -13 3
-22 -4 -10 -2 -14 4 -10 5 3 10 0 10 -8 0 -8 -4 -12 -9 -9 -4 3 -8 1 -8 -5 0
-5 6 -12 13 -14 8 -4 8 -6 -2 -6 -11 -1 -10 -5 5 -16 19 -14 19 -14 -1 -15
l-20 -1 20 -8 c12 -5 26 -4 35 3 8 6 6 1 -4 -12 -15 -17 -17 -25 -8 -34 9 -9
8 -16 -6 -32 -9 -11 -11 -16 -4 -12 6 4 12 2 12 -4 0 -6 5 -8 11 -4 8 4 8 0 0
-15 -8 -14 -8 -21 -1 -21 5 0 10 -5 10 -11 0 -5 -4 -7 -10 -4 -15 9 -12 -4 5
-22 8 -8 13 -18 10 -23 -3 -4 3 -14 12 -21 14 -12 16 -12 8 1 -7 13 -6 13 7 2
10 -8 14 -21 10 -34 -4 -15 -2 -19 7 -13 10 6 11 3 2 -13 -9 -17 -7 -23 11
-36 21 -15 18 -21 -7 -16 -5 1 -6 -2 -2 -7 5 -4 13 -8 18 -8 5 0 9 -4 9 -8 -1
-9 26 -37 35 -37 3 0 3 5 -1 12 -5 7 -3 8 5 4 7 -5 10 -11 7 -14 -3 -3 -1 -11
5 -18 7 -8 7 -14 -1 -19 -5 -3 -10 -12 -10 -18 0 -7 4 -6 10 3 9 13 10 13 10
0 0 -13 1 -13 11 0 8 12 9 11 7 -5 -2 -12 2 -19 10 -17 10 2 10 -2 2 -18 -8
-16 -8 -18 4 -14 8 3 23 1 33 -5 16 -9 16 -10 1 -11 -9 0 -20 -5 -24 -12 -5
-7 -3 -8 7 -3 12 8 12 6 0 -8 -7 -9 -20 -17 -27 -17 -8 0 -14 -5 -14 -11 0 -5
5 -7 10 -4 6 3 10 4 10 1 0 -3 -10 -10 -21 -17 -17 -9 -20 -8 -14 3 4 7 -5 0
-19 -17 -20 -21 -25 -36 -21 -53 5 -20 4 -22 -9 -10 -7 7 -11 17 -8 22 3 5 0
6 -7 1 -9 -5 -10 -10 -2 -18 15 -15 14 -30 -1 -21 -9 5 -8 2 1 -9 12 -16 12
-17 -5 -10 -16 6 -17 5 -6 -9 9 -11 10 -18 2 -23 -5 -3 -10 -1 -10 6 0 7 -3 9
-7 6 -3 -4 0 -15 8 -24 9 -10 14 -29 13 -42 -1 -16 5 -25 17 -28 11 -3 19 -10
19 -15 0 -5 -4 -7 -8 -4 -5 3 -9 -1 -9 -9 0 -13 3 -13 17 0 16 14 18 14 24 0
4 -11 2 -14 -7 -9 -9 6 -9 4 1 -8 7 -9 24 -15 38 -13 16 1 23 -2 21 -9 -3 -7
4 -13 16 -13 11 -1 24 -8 28 -15 7 -10 9 -10 9 2 0 12 2 13 9 1 5 -7 13 -11
18 -8 5 3 15 1 23 -5 13 -8 12 -9 -2 -5 -17 6 -33 -29 -17 -38 4 -3 6 -12 3
-20 -4 -8 -11 -12 -18 -8 -6 4 -4 -2 4 -12 14 -17 13 -18 -5 -11 -15 5 -17 4
-8 -5 6 -6 9 -18 5 -27 -4 -11 -1 -14 9 -10 10 4 15 -1 15 -12 0 -10 -4 -16
-8 -14 -15 10 -8 -13 12 -36 11 -12 17 -26 15 -30 -3 -5 0 -10 5 -12 6 -2 12
-13 13 -25 0 -12 3 -20 6 -18 2 3 14 -3 25 -12 15 -13 14 -10 -4 12 -14 16
-18 24 -9 17 9 -6 20 -8 24 -4 5 4 5 2 1 -5 -3 -6 -2 -14 4 -18 16 -10 7 -52
-15 -66 -18 -11 -19 -11 -6 4 8 10 9 17 3 17 -6 0 -14 -9 -17 -20 -3 -11 -11
-20 -16 -20 -6 0 -7 -6 -3 -12 4 -7 4 -10 -1 -6 -14 13 -47 -12 -40 -30 3 -9
3 -13 -1 -10 -10 10 -46 -11 -39 -23 4 -5 1 -8 -7 -7 -7 2 -12 -3 -10 -9 1 -7
-5 -13 -13 -13 -8 0 -14 -5 -13 -12 2 -7 -3 -12 -9 -13 -7 0 -13 -3 -13 -8 0
-4 -16 -24 -36 -44 -22 -22 -29 -33 -18 -29 11 4 3 -7 -16 -25 -19 -17 -29
-28 -21 -24 9 5 7 -1 -5 -18 -10 -15 -22 -27 -26 -27 -4 0 -4 -7 -1 -17 4 -11
3 -14 -5 -9 -8 5 -12 0 -12 -14 0 -13 -4 -19 -12 -14 -6 4 -8 3 -4 -4 3 -6 2
-13 -4 -17 -6 -4 -8 -11 -5 -16 4 -5 1 -9 -6 -9 -7 0 -9 -3 -6 -7 4 -3 -1 -12
-11 -20 -16 -12 -16 -13 3 -7 19 5 19 5 1 -10 -10 -8 -15 -19 -11 -25 3 -6 1
-11 -4 -11 -6 0 -11 -9 -11 -19 0 -11 -5 -23 -10 -26 -6 -4 -9 -12 -8 -18 1
-7 -4 -23 -11 -36 -11 -19 -11 -22 1 -15 7 4 5 -2 -5 -13 -13 -15 -15 -23 -6
-28 8 -6 7 -10 -4 -17 -9 -5 -14 -15 -11 -22 3 -8 0 -25 -7 -38 -12 -22 -11
-22 6 -8 17 14 18 14 6 -8 -7 -13 -10 -30 -7 -38 3 -8 2 -13 -3 -10 -5 3 -12
-1 -15 -10 -3 -9 -2 -12 5 -9 13 9 8 -27 -6 -37 -6 -5 -5 -8 3 -8 9 0 10 -5 3
-17 -5 -10 -5 -26 0 -40 6 -15 5 -23 -2 -23 -8 0 -8 -4 0 -13 8 -10 7 -17 -1
-25 -8 -8 -9 -12 -1 -12 13 0 12 -18 -1 -39 -7 -10 -5 -12 3 -6 10 5 12 -1 8
-29 -3 -20 -1 -34 3 -31 14 8 20 -24 10 -51 -7 -17 -7 -23 0 -19 6 3 11 -1 11
-9 2 -25 4 -30 13 -45 7 -10 6 -12 -3 -6 -8 5 -7 -3 3 -23 8 -16 12 -32 9 -36
-4 -3 -1 -6 5 -6 6 0 9 -7 5 -17 -4 -10 -2 -14 4 -10 7 5 9 0 6 -13 -4 -15 0
-20 13 -20 16 0 17 -2 4 -10 -8 -5 -10 -10 -3 -10 6 0 9 -9 6 -22 -4 -19 -3
-20 6 -8 9 12 11 11 11 -8 0 -15 4 -21 12 -16 6 4 8 3 5 -4 -9 -13 2 -44 13
-37 4 2 6 -7 4 -20 -1 -16 3 -25 12 -25 13 0 18 -12 15 -33 0 -4 4 -7 10 -7 5
0 8 -4 5 -9 -3 -5 1 -11 9 -15 8 -3 15 -12 15 -21 0 -8 8 -15 18 -15 14 0 15
-2 2 -10 -13 -8 -13 -10 1 -10 9 0 23 -8 30 -18 12 -15 12 -16 -1 -7 -9 6 -7
2 3 -7 11 -10 16 -18 13 -18 -4 0 -1 -6 6 -14 9 -10 15 -11 20 -2 5 7 8 4 8
-7 0 -20 43 -67 60 -67 6 0 9 -3 7 -7 -3 -5 1 -13 8 -20 11 -10 15 -10 18 0 3
7 6 2 6 -10 1 -21 11 -28 33 -24 5 0 7 -2 5 -7 -1 -4 2 -8 6 -9 5 -1 17 -11
26 -22 10 -11 22 -17 26 -13 5 4 6 0 2 -9 -4 -13 -1 -16 14 -12 11 3 21 -1 25
-11 3 -9 10 -13 15 -10 5 3 9 0 9 -6 0 -7 7 -9 16 -6 8 3 12 2 9 -4 -3 -6 1
-10 10 -10 8 0 18 -7 21 -15 4 -8 10 -12 15 -9 6 3 16 0 24 -6 8 -7 15 -9 15
-4 0 4 7 -1 15 -12 10 -14 14 -15 15 -5 0 11 4 9 15 -5 8 -10 15 -14 15 -9 0
6 5 3 10 -5 7 -11 10 -12 10 -2 0 10 4 9 16 -2 8 -9 20 -14 25 -11 5 4 9 1 9
-5 0 -6 5 -8 10 -5 6 3 10 0 10 -7 0 -9 3 -9 10 2 7 11 10 11 10 2 0 -7 4 -10
10 -7 6 3 10 2 10 -3 0 -5 8 -9 18 -9 40 0 53 -4 47 -13 -4 -7 2 -7 19 0 20 7
27 6 35 -8 8 -14 11 -14 11 -2 0 12 4 10 15 -4 11 -15 15 -16 15 -5 0 8 9 15
19 15 11 0 18 -4 15 -7 -2 -4 0 -10 6 -14 5 -3 10 -2 10 2 0 5 9 9 20 9 11 0
20 -4 20 -9 0 -4 6 -5 12 0 18 11 38 13 38 3 0 -4 18 -4 40 0 23 4 43 3 46 -2
3 -5 12 -4 19 2 8 7 24 9 36 5 16 -6 20 -4 13 6 -6 12 -5 12 8 1 12 -10 18 -9
28 3 9 11 16 12 25 5 9 -7 16 -6 25 5 9 11 17 12 32 4 16 -9 19 -8 13 2 -6 9
-3 11 8 6 9 -3 19 -2 22 3 3 5 13 6 22 3 12 -5 14 -3 8 7 -5 9 -4 11 4 6 6 -4
17 -3 24 2 7 5 20 8 30 7 10 -2 14 1 11 7 -5 7 2 9 20 6 15 -3 24 -3 21 0 -10
10 34 32 51 25 12 -4 15 -3 10 5 -7 11 6 17 28 13 13 -3 36 20 30 30 -3 5 3 6
12 2 12 -4 15 -3 10 5 -5 8 -2 10 8 6 10 -4 16 -1 16 7 0 7 3 10 6 6 3 -3 15
3 27 13 11 11 24 17 29 14 4 -3 8 3 8 12 0 10 3 14 7 11 3 -4 12 1 20 11 9 10
12 11 7 2 -4 -8 4 -4 18 10 13 14 22 29 20 34 -3 5 0 6 6 2 14 -8 102 70 102
90 0 8 4 13 9 11 5 -1 9 2 9 7 0 5 7 13 16 18 9 5 13 14 10 20 -4 7 -2 8 5 4
6 -4 14 0 18 11 3 10 12 21 19 26 7 4 11 14 7 22 -4 11 -1 13 13 8 12 -4 15
-3 10 5 -4 7 -3 12 1 12 5 0 16 18 26 40 9 22 22 40 28 40 5 0 7 5 4 10 -3 6
-1 10 5 10 7 0 10 7 6 15 -3 8 -1 15 4 15 6 0 10 10 10 23 0 18 2 19 11 7 8
-12 10 -9 6 12 -2 15 0 25 4 22 5 -3 9 4 9 16 0 14 4 19 13 14 7 -5 6 0 -3 11
-9 11 -10 16 -2 11 7 -4 12 -1 12 8 0 9 6 16 13 16 9 0 8 3 -2 9 -9 6 -10 11
-2 15 6 4 11 16 11 26 0 10 6 21 13 23 9 4 8 6 -2 6 -11 1 -11 4 -1 16 10 12
10 18 0 30 -11 13 -10 14 3 10 8 -4 18 -1 23 6 4 8 3 10 -4 5 -7 -4 -12 -3
-12 3 0 5 6 12 13 15 9 4 9 8 1 11 -7 3 -10 15 -7 25 3 11 9 17 14 15 9 -6 4
28 -6 45 -3 6 1 13 11 17 16 6 15 7 -2 20 -10 7 -12 13 -5 13 7 0 9 4 6 10 -3
5 -2 10 3 10 10 0 9 30 -2 48 -4 7 -2 19 4 27 10 12 10 15 0 15 -10 0 -10 3 0
15 8 10 9 15 1 15 -7 0 -8 8 -1 25 10 26 -1 41 -22 30 -7 -4 -5 0 4 8 14 11
15 16 5 27 -7 7 -7 10 -1 7 6 -3 11 0 11 8 0 8 -4 12 -8 10 -12 -8 -18 22 -6
34 8 8 8 11 -1 11 -10 0 -10 5 -1 21 6 12 7 19 2 16 -5 -3 -15 3 -22 15 -7 11
-8 17 -2 13 16 -9 14 2 -6 33 -17 27 -17 27 2 12 20 -14 20 -14 2 7 -11 12
-16 27 -12 32 3 6 1 11 -5 11 -7 0 -10 7 -6 15 3 8 1 15 -5 15 -6 0 -8 7 -5
16 3 8 2 13 -3 10 -11 -7 -19 12 -16 41 1 12 -2 20 -6 18 -4 -3 -13 3 -20 12
-12 14 -12 15 -1 9 11 -7 12 -4 3 12 -6 12 -15 24 -21 27 -5 3 -7 12 -3 21 3
9 0 14 -8 12 -7 -2 -13 4 -14 12 -1 8 -7 14 -14 12 -8 -2 -10 4 -6 18 5 14 2
20 -10 20 -9 0 -13 5 -10 10 3 6 1 10 -5 10 -6 0 -9 4 -6 8 3 5 -4 15 -15 22
-10 8 -19 19 -19 24 0 13 -48 55 -55 48 -3 -4 -3 1 1 11 4 12 -1 20 -17 26
-13 5 -20 10 -15 10 11 1 -34 41 -46 41 -4 0 -8 8 -8 18 0 11 -3 13 -8 5 -5
-8 -12 -2 -21 18 -7 16 -17 27 -22 23 -5 -3 -12 2 -15 11 -4 10 -13 14 -22 10
-9 -3 -13 -3 -9 1 4 4 2 13 -4 20 -8 10 -6 12 10 9 14 -2 18 1 14 11 -3 7 -10
11 -17 7 -6 -3 -7 -2 -3 3 8 9 12 10 38 13 8 1 8 5 0 15 -10 11 -8 17 6 25 14
8 15 11 3 11 -11 0 -10 4 5 17 20 15 20 15 -4 10 -16 -4 -21 -3 -14 4 12 12 4
61 -8 53 -13 -8 -11 10 2 23 9 9 7 10 -10 6 -13 -3 -21 -1 -21 6 0 7 5 9 12 5
7 -4 8 -3 4 5 -4 6 -10 9 -14 7 -4 -2 -16 3 -27 11 -16 12 -16 14 -3 10 10 -3
20 -2 23 4 4 5 3 9 -2 8 -18 -3 -33 2 -33 11 0 5 7 7 15 4 11 -4 13 -2 9 9 -4
12 1 15 20 13 14 -2 23 1 20 5 -3 5 0 17 6 26 11 16 11 16 6 1 -3 -10 -1 -20
5 -23 5 -4 8 -1 7 7 -2 7 3 12 10 10 10 -2 10 2 1 20 -11 21 -11 22 4 9 15
-12 17 -11 17 9 0 15 5 20 14 17 11 -4 13 -1 9 10 -4 10 -2 14 4 10 6 -4 9 9
9 33 -1 31 1 37 12 28 10 -9 12 -8 10 3 -2 8 -11 19 -22 25 -17 10 -17 12 -2
17 12 5 15 3 10 -6 -5 -9 -4 -9 6 0 13 12 4 37 -11 28 -5 -3 -6 1 -3 10 4 10
-1 22 -15 31 -11 8 -21 21 -21 27 0 7 5 4 11 -5 5 -10 15 -18 20 -18 6 0 3 7
-5 16 -9 8 -16 19 -16 24 0 5 -7 7 -15 4 -11 -5 -13 -2 -9 10 4 10 1 16 -8 16
-7 0 -19 10 -27 23 -7 12 -10 19 -6 15 4 -4 14 0 22 8 9 8 22 13 29 10 9 -3
11 0 7 12 -6 15 -5 15 10 3 15 -12 17 -12 11 4 -6 14 -4 16 6 10 10 -6 12 -4
7 8 -4 11 -1 15 13 12 13 -3 17 1 13 11 -3 7 -10 11 -16 7 -6 -3 -7 -1 -3 5 5
9 13 9 28 1 12 -7 18 -7 14 -1 -3 6 -3 12 1 15 5 2 1 2 -7 0 -11 -3 -12 -1 -4
7 6 6 20 12 32 13 11 0 19 4 17 8 -3 3 4 14 15 24 11 10 17 22 14 26 -3 5 0 9
7 9 6 0 9 8 6 20 -3 12 0 20 7 20 17 0 48 35 39 43 -3 4 -1 7 5 7 7 0 12 5 12
11 0 5 -4 7 -10 4 -6 -3 -7 1 -4 10 5 13 9 13 22 3 13 -11 14 -10 3 10 -10 19
-9 22 6 22 15 0 16 2 3 10 -13 8 -12 10 3 10 9 0 17 5 17 11 0 5 -4 8 -9 4 -5
-3 -13 -1 -16 5 -4 6 -1 9 7 8 7 -2 12 3 10 11 -3 12 -1 12 14 0 11 -9 15 -9
10 -2 -4 7 -9 22 -11 32 -3 15 0 18 12 14 12 -5 15 -2 10 10 -3 9 -2 17 3 17
6 0 10 5 10 11 0 5 -4 8 -9 5 -5 -4 -7 3 -4 15 4 16 8 17 14 7 5 -7 9 -11 10
-8 0 3 2 13 4 23 2 9 -1 15 -5 12 -5 -3 -12 -1 -15 5 -4 6 -1 9 7 8 8 -2 12 4
10 16 -2 10 1 15 7 11 7 -4 8 2 2 17 -8 23 4 66 24 80 6 5 4 8 -5 9 -10 0 -8
3 5 9 17 7 17 9 3 9 -11 1 -15 6 -12 15 3 8 13 12 22 10 13 -4 13 -3 -2 6 -15
10 -16 14 -5 21 11 7 10 9 -4 9 -10 0 -15 5 -12 10 4 6 11 8 16 5 5 -3 6 1 3
9 -3 9 -9 14 -13 12 -4 -3 -7 4 -7 14 0 14 4 16 12 9 9 -8 11 -5 7 10 -3 12
-10 18 -17 14 -6 -3 -6 0 2 8 15 16 16 33 0 23 -7 -5 -8 -3 -2 7 12 19 12 69
0 62 -5 -4 -7 3 -4 15 4 16 2 19 -10 15 -10 -4 -13 -2 -8 5 4 7 9 21 11 32 3
18 1 19 -18 9 -18 -9 -20 -9 -9 2 17 18 16 45 -1 30 -11 -8 -13 -4 -10 22 4
26 2 29 -7 17 -10 -12 -11 -11 -7 7 6 25 -16 49 -34 37 -7 -4 -9 -3 -5 4 3 6
2 13 -4 17 -6 4 -8 10 -5 15 3 4 -2 11 -11 14 -10 4 -13 2 -9 -7 4 -6 0 -4 -9
7 -9 11 -21 16 -32 12 -13 -5 -14 -4 -6 7 8 10 6 16 -10 26 -11 7 -17 8 -13 2
3 -6 1 -11 -4 -11 -6 0 -11 5 -11 11 0 6 -5 7 -12 2 -18 -11 -39 -13 -33 -3 3
4 -2 11 -11 14 -12 5 -15 2 -10 -11 6 -16 6 -16 -12 0 -10 9 -21 14 -25 11 -3
-4 -17 -8 -29 -9 -38 -4 -39 -5 -32 -17 4 -7 3 -8 -5 -4 -6 4 -19 2 -28 -5 -8
-7 -25 -13 -37 -14 -13 0 -20 -5 -18 -14 3 -12 1 -12 -14 0 -12 9 -15 9 -10 2
4 -8 2 -13 -4 -13 -6 0 -8 -5 -4 -11 4 -7 -2 -6 -17 2 -21 11 -23 10 -11 -3
10 -13 9 -15 -12 -13 -19 2 -23 -1 -19 -16 4 -15 2 -18 -12 -12 -15 5 -17 2
-12 -16 4 -17 3 -20 -7 -11 -17 13 -42 -13 -30 -31 5 -9 2 -10 -10 -6 -16 6
-17 3 -12 -20 4 -16 3 -23 -1 -18 -14 18 -32 15 -28 -5 3 -14 -1 -17 -13 -13
-9 3 -14 3 -10 -2 13 -14 -13 -37 -28 -24 -14 11 -8 42 7 33 5 -3 6 2 3 10 -3
9 -9 14 -13 11 -4 -2 -8 2 -8 10 0 8 4 12 8 9 4 -2 10 0 14 6 3 5 -1 10 -9 10
-9 0 -16 5 -16 11 0 5 4 8 9 4 12 -7 5 36 -7 44 -11 8 -10 51 1 44 5 -3 6 -12
2 -22 -4 -11 -3 -13 5 -5 12 12 4 44 -11 44 -5 0 -9 8 -9 18 0 13 2 14 9 4 7
-11 9 -11 14 2 4 9 3 15 -1 15 -20 -3 -25 2 -12 12 12 9 10 10 -8 6 -17 -4
-21 -2 -14 6 5 7 12 22 15 35 5 20 3 22 -11 10 -9 -8 -13 -8 -9 -1 4 6 1 14
-5 16 -8 3 -6 6 5 6 10 1 16 5 12 11 -3 5 -13 6 -23 3 -10 -4 -8 2 8 15 14 12
21 22 15 21 -21 -3 -38 1 -32 7 3 4 2 16 -4 28 -8 17 -6 16 11 -4 l21 -25 -12
28 c-7 15 -16 27 -21 27 -5 0 -3 10 3 23 12 21 11 21 -6 7 -11 -9 -16 -10 -11
-2 4 6 3 12 -2 12 -6 0 -8 9 -5 20 3 12 0 20 -7 20 -8 0 -11 9 -8 25 3 13 1
22 -3 19 -5 -3 -9 0 -9 6 0 6 -5 8 -12 4 -7 -4 -8 -3 -4 5 4 6 12 9 17 6 5 -4
9 -1 9 6 0 7 -8 9 -21 6 -17 -4 -19 -3 -10 6 15 15 14 30 -3 24 -8 -3 -13 1
-12 11 0 9 -5 16 -12 14 -8 -1 -11 2 -7 8 3 6 10 8 15 5 5 -3 11 -1 14 4 4 5
-4 8 -17 7 -15 -2 -24 2 -24 11 0 8 6 12 15 8 12 -4 13 -3 3 9 -7 8 -20 12
-29 9 -15 -6 -16 -5 -2 12 14 17 13 18 -4 12 -16 -6 -17 -5 -7 7 10 12 8 17
-11 26 -22 11 -22 10 -4 -4 11 -9 15 -16 9 -16 -17 0 -36 27 -23 35 16 10 2
25 -18 18 -15 -6 -15 -4 -4 9 11 14 10 16 -12 14 -14 -2 -23 0 -21 5 3 4 2 9
-2 12 -5 2 -2 2 5 0 7 -1 10 2 7 7 -3 6 -15 10 -26 10 -10 0 -19 5 -19 11 0 5
5 7 12 3 7 -4 8 -3 4 5 -4 6 -12 8 -18 5 -7 -5 -9 -1 -5 9 3 10 2 17 -3 17 -6
0 -10 -7 -10 -16 0 -8 -5 -12 -10 -9 -6 4 -8 11 -5 16 4 5 -1 9 -10 9 -10 0
-13 5 -9 12 4 6 3 8 -4 4 -5 -3 -13 0 -15 6 -4 10 -6 10 -6 1 -1 -7 -6 -13
-12 -13 -5 0 -8 4 -5 9 3 5 -1 12 -10 15 -22 9 -26 8 -18 -6 5 -7 3 -8 -5 -4
-7 5 -10 14 -7 22 3 8 0 11 -9 7 -8 -3 -12 -10 -9 -17 3 -6 -4 0 -15 13 -12
13 -21 19 -21 13 0 -5 -7 -12 -14 -15 -10 -4 -13 -1 -10 7 3 7 -2 13 -11 13
-10 0 -14 -6 -10 -16 4 -11 1 -10 -15 4 -16 14 -23 16 -32 7 -15 -15 -32 -16
-23 -2 7 11 2 13 -8 3z m53 -13 c0 -5 -5 -10 -11 -10 -5 0 -7 5 -4 10 3 6 8
10 11 10 2 0 4 -4 4 -10z m-265 -208 c-3 -3 -11 0 -18 7 -9 10 -8 11 6 5 10
-3 15 -9 12 -12z m-550 -621 c-3 -6 -11 -11 -17 -11 -6 0 -6 6 2 15 14 17 26
13 15 -4z m2050 10 c3 -5 2 -12 -3 -15 -5 -3 -9 1 -9 9 0 17 3 19 12 6z m-641
-180 c-2 -3 -12 3 -22 13 -16 17 -16 18 5 5 12 -7 20 -15 17 -18z m-1489 -30
c3 -5 2 -12 -3 -15 -5 -3 -9 1 -9 9 0 17 3 19 12 6z m-8 -126 c0 -8 -4 -12 -9
-9 -4 3 -8 9 -8 15 0 5 4 9 8 9 5 0 9 -7 9 -15z m-3 -34 c3 -5 -1 -11 -9 -14
-9 -4 -12 -1 -8 9 6 16 10 17 17 5z m2076 -487 c0 -8 -19 -13 -24 -6 -3 5 1 9
9 9 8 0 15 -2 15 -3z m-1955 -22 c-3 -3 -11 0 -18 7 -9 10 -8 11 6 5 10 -3 15
-9 12 -12z m1889 -61 c3 -4 -7 -19 -22 -32 -25 -22 -25 -22 -8 -1 11 12 16 22
12 22 -4 0 -4 5 -1 10 8 12 12 13 19 1z m-1684 -571 c0 -5 -5 -10 -11 -10 -5
0 -7 5 -4 10 3 6 8 10 11 10 2 0 4 -4 4 -10z m1600 -2093 c0 -2 -10 -12 -22
-23 l-23 -19 19 23 c18 21 26 27 26 19z"/>
<path d="M1523 4185 c0 -8 4 -12 9 -9 5 3 6 10 3 15 -9 13 -12 11 -12 -6z"/>
<path d="M3143 4185 c0 -8 4 -12 9 -9 5 3 6 10 3 15 -9 13 -12 11 -12 -6z"/>
<path d="M1775 4181 c-3 -5 -1 -12 5 -16 5 -3 10 1 10 9 0 18 -6 21 -15 7z"/>
<path d="M1825 4170 c-4 -6 -11 -7 -17 -4 -7 4 -8 2 -4 -5 6 -9 11 -9 22 0 14
11 18 19 10 19 -3 0 -8 -5 -11 -10z"/>
<path d="M2856 3948 c3 -5 10 -6 15 -3 13 9 11 12 -6 12 -8 0 -12 -4 -9 -9z"/>
<path d="M3566 3595 c-3 -8 0 -17 6 -21 6 -4 8 -3 4 4 -3 5 -1 12 6 14 8 3 9
6 1 11 -6 4 -13 0 -17 -8z"/>
<path d="M1510 3116 c0 -2 7 -7 16 -10 8 -3 12 -2 9 4 -6 10 -25 14 -25 6z"/>
</g>
</svg>
